G04 RS-274X Gerber file*
G04 Generated by gerber_utils.py*
%FSLAX25Y25*%
%MOIN*%
%ADD10R,0.04X0.03*%
%ADD11C,0.012*%
%ADD12C,0.04*%
%ADD13R,0.024X0.06*%
%ADD14C,0.008*%
%ADD15C,0.015*%
D13*
X132637Y80925D03*
X132637Y85925D03*
X132637Y90925D03*
X132637Y95925D03*
X132637Y100925D03*
X132637Y105925D03*
X132637Y110925D03*
X132637Y115925D03*
X162637Y115925D03*
X162637Y110925D03*
X162637Y105925D03*
X162637Y100925D03*
X162637Y95925D03*
X162637Y90925D03*
X162637Y85925D03*
X162637Y80925D03*
D10*
X56102Y137795D03*
X62007Y137795D03*
X56102Y157480D03*
X62007Y157480D03*
X75787Y137795D03*
X81692Y137795D03*
X75787Y157480D03*
X81692Y157480D03*
X95472Y137795D03*
X101377Y137795D03*
X95472Y157480D03*
X101377Y157480D03*
X115157Y137795D03*
X121062Y137795D03*
X115157Y157480D03*
X121062Y157480D03*
X56102Y78740D03*
X62007Y78740D03*
X56102Y98425D03*
X62007Y98425D03*
X75787Y78740D03*
X81692Y78740D03*
X75787Y98425D03*
X81692Y98425D03*
X95472Y78740D03*
X101377Y78740D03*
X95472Y98425D03*
X101377Y98425D03*
X115157Y78740D03*
X121062Y78740D03*
X115157Y98425D03*
X121062Y98425D03*
X125000Y129921D03*
X130905Y129921D03*
X164370Y129921D03*
X170275Y129921D03*
X113188Y66929D03*
X119094Y66929D03*
D12*
X39370Y177165D03*
X49370Y177165D03*
X59370Y177165D03*
X69370Y177165D03*
X79370Y177165D03*
X89370Y177165D03*
D14*
X39370Y177165D02*
X39370Y75925D01*
X132637Y75925D01*
X49370Y177165D02*
X49370Y80925D01*
X132637Y80925D01*
X59370Y177165D02*
X59370Y85925D01*
X132637Y85925D01*
D15*
X79370Y177165D02*
X79370Y115925D01*
X162637Y115925D01*
X79370Y129921D02*
X130905Y129921D01*
X130905Y129921D02*
X164370Y129921D01*
D14*
X162637Y115925D02*
X56102Y115925D01*
X56102Y78740D01*
X162637Y110925D02*
X56102Y110925D01*
X56102Y98425D01*
X162637Y105925D02*
X75787Y105925D01*
X75787Y78740D01*
X162637Y100925D02*
X75787Y100925D01*
X75787Y98425D01*
X162637Y95925D02*
X95472Y95925D01*
X95472Y78740D01*
X162637Y90925D02*
X95472Y90925D01*
X95472Y98425D01*
X162637Y85925D02*
X115157Y85925D01*
X115157Y78740D01*
X162637Y80925D02*
X115157Y80925D01*
X115157Y98425D01*
X62007Y78740D02*
X62007Y137795D01*
X56102Y137795D01*
X62007Y98425D02*
X62007Y157480D01*
X56102Y157480D01*
X81692Y78740D02*
X81692Y137795D01*
X75787Y137795D01*
X81692Y98425D02*
X81692Y157480D01*
X75787Y157480D01*
X101377Y78740D02*
X101377Y137795D01*
X95472Y137795D01*
X101377Y98425D02*
X101377Y157480D01*
X95472Y157480D01*
X121062Y78740D02*
X121062Y137795D01*
X115157Y137795D01*
X121062Y98425D02*
X121062Y157480D01*
X115157Y157480D01*
D11*
X78740Y59055D03*
X78740Y118110D03*
X78740Y177165D03*
X137795Y59055D03*
X137795Y118110D03*
X137795Y177165D03*
X196850Y59055D03*
X196850Y118110D03*
X196850Y177165D03*
X255905Y59055D03*
X255905Y118110D03*
X255905Y177165D03*
M02*
