G04 RS-274X Gerber file*
G04 Generated by gerber_utils.py*
%FSLAX25Y25*%
%MOIN*%
%ADD10R,0.04X0.03*%
%ADD11R,0.024X0.06*%
D11*
X132637Y80925D03*
X132637Y85925D03*
X132637Y90925D03*
X132637Y95925D03*
X132637Y100925D03*
X132637Y105925D03*
X132637Y110925D03*
X132637Y115925D03*
X162637Y115925D03*
X162637Y110925D03*
X162637Y105925D03*
X162637Y100925D03*
X162637Y95925D03*
X162637Y90925D03*
X162637Y85925D03*
X162637Y80925D03*
D10*
X56102Y137795D03*
X62007Y137795D03*
X56102Y157480D03*
X62007Y157480D03*
X75787Y137795D03*
X81692Y137795D03*
X75787Y157480D03*
X81692Y157480D03*
X95472Y137795D03*
X101377Y137795D03*
X95472Y157480D03*
X101377Y157480D03*
X115157Y137795D03*
X121062Y137795D03*
X115157Y157480D03*
X121062Y157480D03*
X56102Y78740D03*
X62007Y78740D03*
X56102Y98425D03*
X62007Y98425D03*
X75787Y78740D03*
X81692Y78740D03*
X75787Y98425D03*
X81692Y98425D03*
X95472Y78740D03*
X101377Y78740D03*
X95472Y98425D03*
X101377Y98425D03*
X115157Y78740D03*
X121062Y78740D03*
X115157Y98425D03*
X121062Y98425D03*
X125000Y129921D03*
X130905Y129921D03*
X164370Y129921D03*
X170275Y129921D03*
X113188Y66929D03*
X119094Y66929D03*
M02*
