G04 RS-274X Gerber file*
G04 Generated by gerber_utils.py*
%FSLAX25Y25*%
%MOIN*%
%ADD10C,0.035*%
%ADD11C,0.025*%
%ADD12C,0.012*%
%ADD13C,0.045*%
%ADD14C,0.035*%
%ADD15C,0.006*%
%ADD16C,0.012*%
D11*
X73425Y77637D03*
X73425Y97637D03*
X73425Y117637D03*
X73425Y137637D03*
X123425Y157637D03*
X123425Y177637D03*
X123425Y197637D03*
X123425Y217637D03*
D11*
X186535Y50354D03*
X186535Y65354D03*
X186535Y80354D03*
X186535Y95354D03*
X186535Y110354D03*
X186535Y125354D03*
X186535Y140354D03*
X186535Y155354D03*
X246535Y170354D03*
X246535Y185354D03*
X246535Y200354D03*
X246535Y215354D03*
X246535Y230354D03*
X246535Y245354D03*
X246535Y260354D03*
X246535Y275354D03*
D11*
X186535Y-44133D03*
X186535Y-29133D03*
X186535Y-14133D03*
X186535Y866D03*
X186535Y15866D03*
X186535Y30866D03*
X186535Y45866D03*
X186535Y60866D03*
X246535Y75866D03*
X246535Y90866D03*
X246535Y105866D03*
X246535Y120866D03*
X246535Y135866D03*
X246535Y150866D03*
X246535Y165866D03*
X246535Y180866D03*
D10*
X39370Y236220D03*
X70866Y236220D03*
X102362Y236220D03*
X133858Y236220D03*
X165354Y236220D03*
X196850Y236220D03*
X228346Y236220D03*
X259842Y236220D03*
X39370Y19685D03*
X70866Y19685D03*
X102362Y19685D03*
X133858Y19685D03*
X165354Y19685D03*
X196850Y19685D03*
X228346Y19685D03*
X259842Y19685D03*
X39370Y196850D03*
X39370Y59055D03*
X70866Y196850D03*
X70866Y59055D03*
X102362Y196850D03*
X102362Y59055D03*
X133858Y196850D03*
X133858Y59055D03*
X165354Y196850D03*
X165354Y59055D03*
X196850Y196850D03*
X196850Y59055D03*
X228346Y196850D03*
X228346Y59055D03*
X259842Y196850D03*
X259842Y59055D03*
X78740Y177165D03*
X236220Y196850D03*
X236220Y39370D03*
X118110Y98425D03*
D14*
X19685Y118110D03*
D13*
X374015Y295275D03*
X374015Y98425D03*
X364015Y98425D03*
X354015Y98425D03*
X344015Y98425D03*
X334015Y98425D03*
X324015Y98425D03*
D15*
X98425Y147637D02*
X166535Y165354D01*
X246535Y45354D02*
X216535Y70866D01*
M02*
