M48
INCH
M72
T1C0.0120
T2C0.0350
T3C0.0450
%
T1
X05905Y03937
X05905Y09842
X05905Y15748
X05905Y21653
X05905Y27559
X09842Y03937
X09842Y09842
X09842Y15748
X09842Y21653
X09842Y27559
X13779Y03937
X13779Y09842
X13779Y15748
X13779Y21653
X13779Y27559
X17716Y03937
X17716Y09842
X17716Y15748
X17716Y21653
X17716Y27559
X21653Y03937
X21653Y09842
X21653Y15748
X21653Y21653
X21653Y27559
X25590Y03937
X25590Y09842
X25590Y15748
X25590Y21653
X25590Y27559
X29527Y03937
X29527Y09842
X29527Y15748
X29527Y21653
X29527Y27559
X33464Y03937
X33464Y09842
X33464Y15748
X33464Y21653
X33464Y27559
T2
X00688Y10925
X03248Y10925
X00688Y12696
X03248Y12696
X37401Y09842
X36401Y09842
X35401Y09842
X34401Y09842
X33401Y09842
X32401Y09842
T3
X35433Y26771
X36433Y26771
X37433Y26771
M30
