M48
INCH
M72
T1C0.0120
T2C0.0350
T3C0.0450
%
T2
X01968Y11811
T3
X37401Y29527
T3
X38401Y29527
T3
X39401Y29527
T2
X37401Y09842
T2
X36401Y09842
T2
X35401Y09842
T2
X34401Y09842
T2
X33401Y09842
T2
X32401Y09842
T1
X05905Y03937
T1
X05905Y09842
T1
X05905Y15748
T1
X05905Y21653
T1
X05905Y27559
T1
X09842Y03937
T1
X09842Y09842
T1
X09842Y15748
T1
X09842Y21653
T1
X09842Y27559
T1
X13779Y03937
T1
X13779Y09842
T1
X13779Y15748
T1
X13779Y21653
T1
X13779Y27559
T1
X17716Y03937
T1
X17716Y09842
T1
X17716Y15748
T1
X17716Y21653
T1
X17716Y27559
T1
X21653Y03937
T1
X21653Y09842
T1
X21653Y15748
T1
X21653Y21653
T1
X21653Y27559
T1
X25590Y03937
T1
X25590Y09842
T1
X25590Y15748
T1
X25590Y21653
T1
X25590Y27559
T1
X29527Y03937
T1
X29527Y09842
T1
X29527Y15748
T1
X29527Y21653
T1
X29527Y27559
T1
X33464Y03937
T1
X33464Y09842
T1
X33464Y15748
T1
X33464Y21653
T1
X33464Y27559
M30
