G04 RS-274X Gerber file*
G04 Generated by gerber_utils.py*
%FSLAX25Y25*%
%MOIN*%
%ADD10R,0.04X0.03*%
%ADD11R,0.024X0.06*%
D11*
X88425Y140137D03*
X88425Y145137D03*
X88425Y150137D03*
X88425Y155137D03*
X108425Y155137D03*
X108425Y150137D03*
X108425Y145137D03*
X108425Y140137D03*
D11*
X201535Y147854D03*
X201535Y152854D03*
X201535Y157854D03*
X201535Y162854D03*
X201535Y167854D03*
X201535Y172854D03*
X201535Y177854D03*
X201535Y182854D03*
X231535Y182854D03*
X231535Y177854D03*
X231535Y172854D03*
X231535Y167854D03*
X231535Y162854D03*
X231535Y157854D03*
X231535Y152854D03*
X231535Y147854D03*
D11*
X201535Y53366D03*
X201535Y58366D03*
X201535Y63366D03*
X201535Y68366D03*
X201535Y73366D03*
X201535Y78366D03*
X201535Y83366D03*
X201535Y88366D03*
X231535Y88366D03*
X231535Y83366D03*
X231535Y78366D03*
X231535Y73366D03*
X231535Y68366D03*
X231535Y63366D03*
X231535Y58366D03*
X231535Y53366D03*
D10*
X36417Y236220D03*
X42322Y236220D03*
X67913Y236220D03*
X73818Y236220D03*
X99409Y236220D03*
X105314Y236220D03*
X130905Y236220D03*
X136811Y236220D03*
X162401Y236220D03*
X168307Y236220D03*
X193897Y236220D03*
X199803Y236220D03*
X225393Y236220D03*
X231299Y236220D03*
X256889Y236220D03*
X262795Y236220D03*
X36417Y19685D03*
X42322Y19685D03*
X67913Y19685D03*
X73818Y19685D03*
X99409Y19685D03*
X105314Y19685D03*
X130905Y19685D03*
X136811Y19685D03*
X162401Y19685D03*
X168307Y19685D03*
X193897Y19685D03*
X199803Y19685D03*
X225393Y19685D03*
X231299Y19685D03*
X256889Y19685D03*
X262795Y19685D03*
X36417Y196850D03*
X42322Y196850D03*
X36417Y59055D03*
X42322Y59055D03*
X67913Y196850D03*
X73818Y196850D03*
X67913Y59055D03*
X73818Y59055D03*
X99409Y196850D03*
X105314Y196850D03*
X99409Y59055D03*
X105314Y59055D03*
X130905Y196850D03*
X136811Y196850D03*
X130905Y59055D03*
X136811Y59055D03*
X162401Y196850D03*
X168307Y196850D03*
X162401Y59055D03*
X168307Y59055D03*
X193897Y196850D03*
X199803Y196850D03*
X193897Y59055D03*
X199803Y59055D03*
X225393Y196850D03*
X231299Y196850D03*
X225393Y59055D03*
X231299Y59055D03*
X256889Y196850D03*
X262795Y196850D03*
X256889Y59055D03*
X262795Y59055D03*
X75787Y177165D03*
X81692Y177165D03*
X233267Y196850D03*
X239173Y196850D03*
X233267Y39370D03*
X239173Y39370D03*
X115157Y98425D03*
X121062Y98425D03*
M02*
