G04 RS-274X Gerber file*
G04 Generated by gerber_utils.py*
%FSLAX25Y25*%
%MOIN*%
%ADD10R,0.043000000000000003X0.033*%
%ADD11R,0.027X0.063*%
%ADD12C,0.015*%
%ADD13C,0.048*%
%ADD14C,0.038000000000000006*%
%ADD15C,0.009000000000000001*%
%ADD16C,0.015*%
D11*
X88425Y140137D03*
X88425Y145137D03*
X88425Y150137D03*
X88425Y155137D03*
X108425Y155137D03*
X108425Y150137D03*
X108425Y145137D03*
X108425Y140137D03*
D11*
X201535Y147854D03*
X201535Y152854D03*
X201535Y157854D03*
X201535Y162854D03*
X201535Y167854D03*
X201535Y172854D03*
X201535Y177854D03*
X201535Y182854D03*
X231535Y182854D03*
X231535Y177854D03*
X231535Y172854D03*
X231535Y167854D03*
X231535Y162854D03*
X231535Y157854D03*
X231535Y152854D03*
X231535Y147854D03*
D11*
X201535Y53366D03*
X201535Y58366D03*
X201535Y63366D03*
X201535Y68366D03*
X201535Y73366D03*
X201535Y78366D03*
X201535Y83366D03*
X201535Y88366D03*
X231535Y88366D03*
X231535Y83366D03*
X231535Y78366D03*
X231535Y73366D03*
X231535Y68366D03*
X231535Y63366D03*
X231535Y58366D03*
X231535Y53366D03*
D10*
X36417Y236220D03*
X42322Y236220D03*
X67913Y236220D03*
X73818Y236220D03*
X99409Y236220D03*
X105314Y236220D03*
X130905Y236220D03*
X136811Y236220D03*
X162401Y236220D03*
X168307Y236220D03*
X193897Y236220D03*
X199803Y236220D03*
X225393Y236220D03*
X231299Y236220D03*
X256889Y236220D03*
X262795Y236220D03*
X36417Y19685D03*
X42322Y19685D03*
X67913Y19685D03*
X73818Y19685D03*
X99409Y19685D03*
X105314Y19685D03*
X130905Y19685D03*
X136811Y19685D03*
X162401Y19685D03*
X168307Y19685D03*
X193897Y19685D03*
X199803Y19685D03*
X225393Y19685D03*
X231299Y19685D03*
X256889Y19685D03*
X262795Y19685D03*
X36417Y196850D03*
X42322Y196850D03*
X36417Y59055D03*
X42322Y59055D03*
X67913Y196850D03*
X73818Y196850D03*
X67913Y59055D03*
X73818Y59055D03*
X99409Y196850D03*
X105314Y196850D03*
X99409Y59055D03*
X105314Y59055D03*
X130905Y196850D03*
X136811Y196850D03*
X130905Y59055D03*
X136811Y59055D03*
X162401Y196850D03*
X168307Y196850D03*
X162401Y59055D03*
X168307Y59055D03*
X193897Y196850D03*
X199803Y196850D03*
X193897Y59055D03*
X199803Y59055D03*
X225393Y196850D03*
X231299Y196850D03*
X225393Y59055D03*
X231299Y59055D03*
X256889Y196850D03*
X262795Y196850D03*
X256889Y59055D03*
X262795Y59055D03*
X75787Y177165D03*
X81692Y177165D03*
X233267Y196850D03*
X239173Y196850D03*
X233267Y39370D03*
X239173Y39370D03*
X115157Y98425D03*
X121062Y98425D03*
D14*
X6889Y109251D03*
X32480Y109251D03*
X6889Y126968D03*
X32480Y126968D03*
D13*
X354330Y267716D03*
X364330Y267716D03*
X374330Y267716D03*
X374015Y98425D03*
X364015Y98425D03*
X354015Y98425D03*
X344015Y98425D03*
X334015Y98425D03*
X324015Y98425D03*
D15*
D16*
D12*
X59055Y39370D03*
X59055Y98425D03*
X59055Y157480D03*
X59055Y216535D03*
X59055Y275590D03*
X98425Y39370D03*
X98425Y98425D03*
X98425Y157480D03*
X98425Y216535D03*
X98425Y275590D03*
X137795Y39370D03*
X137795Y98425D03*
X137795Y157480D03*
X137795Y216535D03*
X137795Y275590D03*
X177165Y39370D03*
X177165Y98425D03*
X177165Y157480D03*
X177165Y216535D03*
X177165Y275590D03*
X216535Y39370D03*
X216535Y98425D03*
X216535Y157480D03*
X216535Y216535D03*
X216535Y275590D03*
X255905Y39370D03*
X255905Y98425D03*
X255905Y157480D03*
X255905Y216535D03*
X255905Y275590D03*
X295275Y39370D03*
X295275Y98425D03*
X295275Y157480D03*
X295275Y216535D03*
X295275Y275590D03*
X334645Y39370D03*
X334645Y98425D03*
X334645Y157480D03*
X334645Y216535D03*
X334645Y275590D03*
M02*
